<svg width="22" height="22" viewBox="0 0 22 22" fill="none" xmlns="http://www.w3.org/2000/svg">
<path d="M20.3335 9.66659H12.3335V1.66659C12.3335 1.31296 12.193 0.973825 11.943 0.723777C11.6929 0.473728 11.3538 0.333252 11.0002 0.333252C10.6465 0.333252 10.3074 0.473728 10.0574 0.723777C9.80731 0.973825 9.66683 1.31296 9.66683 1.66659V9.66659H1.66683C1.31321 9.66659 0.974069 9.80706 0.724021 10.0571C0.473972 10.3072 0.333496 10.6463 0.333496 10.9999C0.333496 11.3535 0.473972 11.6927 0.724021 11.9427C0.974069 12.1928 1.31321 12.3333 1.66683 12.3333H9.66683V20.3333C9.66683 20.6869 9.80731 21.026 10.0574 21.2761C10.3074 21.5261 10.6465 21.6666 11.0002 21.6666C11.3538 21.6666 11.6929 21.5261 11.943 21.2761C12.193 21.026 12.3335 20.6869 12.3335 20.3333V12.3333H20.3335C20.6871 12.3333 21.0263 12.1928 21.2763 11.9427C21.5264 11.6927 21.6668 11.3535 21.6668 10.9999C21.6668 10.6463 21.5264 10.3072 21.2763 10.0571C21.0263 9.80706 20.6871 9.66659 20.3335 9.66659Z" fill="#F24A40"/>
</svg>
