<svg width="86" height="60" viewBox="0 0 86 60" fill="none" xmlns="http://www.w3.org/2000/svg">
<path d="M85.4623 52.6589C85.3615 53.3476 85.1936 54.0195 84.9416 54.5402C84.4881 55.464 84.0514 55.548 82.3381 55.464C80.1209 55.3632 76.9463 55.464 73.5869 55.5984C73.5869 56.5222 73.6205 56.9589 73.6205 56.9589C73.8389 59.4953 74.9811 59.5793 75.4346 59.5793H82.6572C83.2955 59.5793 83.8834 59.5792 84.3369 59.2769C84.9248 58.8906 85.1768 57.7652 85.3951 55.8C85.4287 55.5144 85.4455 55.1449 85.4623 54.7082V54.6914C85.4623 54.557 85.4791 54.389 85.4791 54.2043V54.0195C85.4791 53.566 85.4791 53.0621 85.4623 52.6589Z" fill="#F24A40"/>
<path d="M0.504102 52.6589C0.604883 53.3476 0.772852 54.0195 1.0248 54.5402C1.47832 55.464 1.91504 55.548 3.62832 55.464C5.84551 55.3632 9.02012 55.464 12.3795 55.5984C12.3795 56.5222 12.3459 56.9589 12.3459 56.9589C12.1275 59.4953 10.9854 59.5793 10.5318 59.5793H3.30918C2.6709 59.5793 2.1334 59.5792 1.62949 59.2769C1.0248 58.9242 0.789648 57.7652 0.571289 55.8C0.537695 55.5144 0.520898 55.1449 0.504102 54.7082V54.6914C0.504102 54.557 0.487305 54.389 0.487305 54.2043V54.0195C0.504102 53.566 0.504102 53.0621 0.504102 52.6589Z" fill="#F24A40"/>
<path d="M86 36.8196C86 31.663 85.3281 26.6239 85.0594 26.0696C84.8578 25.6665 83.5645 24.6083 80.625 22.6095C77.652 20.577 77.7191 20.8794 77.1816 19.5524C77.6688 19.4013 78.1391 19.1157 78.4246 19.0821C79.0629 19.0149 79.0965 19.6196 80.4234 19.6196C81.7504 19.6196 84.6227 19.2669 85.2105 18.679C85.7984 18.0911 85.9832 17.8896 85.9832 17.3688C85.9832 16.8481 85.6809 15.7731 85.1098 15.1349C84.5387 14.4966 82.1031 14.1774 80.6754 13.9927C79.2477 13.8079 79.0461 13.9927 78.6766 14.2278C78.0887 14.5974 78.0551 17.9735 78.0551 17.9735L76.6609 18.0071C75.7539 15.7731 74.4941 11.2716 72.5289 7.72744C70.3789 3.86416 68.1281 2.65479 67.1875 2.35244C66.2637 2.0669 65.4238 1.86533 59.125 1.22705C52.6918 0.555176 47.5688 0.471191 43 0.471191C38.4312 0.471191 33.3082 0.571973 26.875 1.22705C20.5762 1.88213 19.7363 2.0669 18.8125 2.35244C17.8887 2.63799 15.6211 3.86416 13.4711 7.72744C11.5059 11.2716 10.2461 15.7731 9.33906 18.0071L7.94492 17.9735C7.94492 17.9735 7.92812 14.5974 7.32344 14.2278C6.95391 13.9927 6.75234 13.7911 5.32461 13.9927C3.89688 14.1942 1.46133 14.4966 0.890234 15.1349C0.319141 15.7731 0.0167969 16.8481 0.0167969 17.3688C0.0167969 17.8896 0.201562 18.1079 0.789453 18.679C1.37734 19.2669 4.24961 19.6196 5.57656 19.6196C6.90352 19.6196 6.93711 19.0149 7.57539 19.0821C7.86094 19.1157 8.34805 19.4013 8.81836 19.5524C8.26406 20.8794 8.34805 20.577 5.375 22.6095C2.43555 24.6251 1.12539 25.6665 0.940625 26.0696C0.671875 26.6239 0 31.663 0 36.8196C0 41.9763 0.369531 46.6122 0.369531 48.2583C0.369531 48.947 0.369531 50.1563 0.520703 51.3153C0.621484 52.004 0.772656 52.6759 1.04141 53.1966C1.49492 54.1204 1.91484 54.2044 3.64492 54.1204C5.86211 54.0196 9.07031 54.1204 12.3793 54.2548C14.5965 54.3388 16.8641 54.4227 18.8797 54.4731C23.9188 54.5739 22.4406 53.7341 24.5906 53.7677C26.7406 53.8013 35.223 54.154 42.9832 54.154C50.7434 54.154 59.2426 53.8013 61.3758 53.7677C63.5258 53.7341 62.0477 54.5739 67.0867 54.4731C69.1023 54.4395 71.3699 54.3388 73.5871 54.2548C76.8961 54.1372 80.1211 54.0196 82.3215 54.1204C84.0516 54.2044 84.4715 54.1204 84.925 53.1966C85.177 52.6759 85.3449 52.004 85.4457 51.3153C85.6137 50.1563 85.5969 48.947 85.5969 48.2583C85.6305 46.629 86 41.9763 86 36.8196V36.8196ZM14.4789 11.3892C15.2852 9.50791 17.7039 5.72861 18.8797 5.05674C19.1652 4.88877 21.668 4.09932 27.9332 3.6794C33.6945 3.29307 40.0605 3.14189 43.0168 3.14189C45.973 3.14189 52.3391 3.29307 58.1004 3.6794C64.3488 4.09932 66.8852 4.87197 67.1539 5.05674C68.6656 6.09814 70.7484 9.50791 71.5547 11.3892C72.3609 13.2704 73.4359 16.9657 73.2344 17.4696C73.0328 17.9735 73.4359 18.2255 70.7148 18.0071C68.0105 17.8056 51.0289 17.5872 43.0336 17.5872C35.0551 17.5872 18.0734 17.8056 15.3523 18.0071C12.6313 18.2087 13.0344 17.9735 12.8328 17.4696C12.5977 16.9657 13.6727 13.2872 14.4789 11.3892V11.3892ZM20.6602 32.4188C19.4508 32.7212 18.7285 33.3763 17.2168 33.3595C15.7051 33.3595 11.6234 32.6708 10.75 32.6372C9.87656 32.6036 9.10391 33.2251 8.65039 33.3427C8.19687 33.4603 7.30664 33.1411 5.96289 32.7212C4.61914 32.3013 3.82969 32.4188 3.39297 30.588C2.93945 28.7739 3.39297 26.1704 3.39297 26.1704C6.29883 26.036 9.10391 26.3048 14.3613 27.7829C19.6187 29.261 22.5414 32.0997 22.5414 32.0997C22.5414 32.0997 21.8695 32.1165 20.6602 32.4188V32.4188ZM60.1664 45.6548C57.7645 45.9739 47.7031 46.0579 43 46.0579C38.2969 46.0579 28.2355 45.9571 25.8336 45.6548C23.3813 45.3356 20.1898 42.3962 22.3902 40.0614C25.3633 36.8868 24.809 36.9876 31.5613 36.1142C37.4066 35.3583 41.841 35.3247 43 35.3247C44.1422 35.3247 48.5934 35.3751 54.4387 36.1142C61.191 36.9876 60.6367 36.8868 63.6098 40.0614C65.8102 42.3962 62.6188 45.3356 60.1664 45.6548V45.6548ZM82.607 30.6048C82.1535 32.4188 81.3809 32.3181 80.0371 32.738C78.6934 33.1579 77.8031 33.4603 77.3496 33.3595C76.8961 33.2587 76.1234 32.6372 75.25 32.654C74.3766 32.6876 70.2949 33.3763 68.7832 33.3763C67.2715 33.3763 66.5492 32.738 65.3398 32.4356C64.1305 32.1333 63.4586 32.1333 63.4586 32.1333C63.4586 32.1333 66.3645 29.2778 71.6387 27.8165C76.8961 26.3384 79.7012 26.0696 82.607 26.204C82.607 26.1704 83.0605 28.7739 82.607 30.6048Z" fill="#F24A40"/>
</svg>
