<svg width="26" height="28" viewBox="0 0 26 28" fill="none" xmlns="http://www.w3.org/2000/svg">
<path d="M9.19181 25.7096V21.6204C9.19179 20.5842 10.0344 19.7424 11.0781 19.7358H14.9103C15.9587 19.7358 16.8085 20.5796 16.8085 21.6204V25.6977C16.8085 26.5965 17.5389 27.3269 18.4441 27.3334H21.0586C22.2797 27.3365 23.4518 26.8571 24.3164 26.001C25.1809 25.1449 25.6668 23.9824 25.6668 22.7701V11.1545C25.6668 10.1753 25.2296 9.24636 24.473 8.61808L15.5908 1.56577C14.0382 0.332245 11.8207 0.372092 10.314 1.66059L1.62285 8.61808C0.830484 9.22784 0.356899 10.1595 0.333496 11.1545V22.7583C0.333496 25.285 2.39667 27.3334 4.94173 27.3334H7.49655C7.93239 27.3365 8.35148 27.1668 8.66079 26.862C8.97011 26.5571 9.14406 26.1423 9.14405 25.7096H9.19181Z" fill="#201B19"/>
</svg>
