<svg width="28" height="28" viewBox="0 0 28 28" fill="none" xmlns="http://www.w3.org/2000/svg">
<path d="M14.7865 15.3333L11.7198 18.3866C11.5949 18.5106 11.4957 18.6581 11.428 18.8205C11.3603 18.983 11.3254 19.1573 11.3254 19.3333C11.3254 19.5093 11.3603 19.6836 11.428 19.8461C11.4957 20.0086 11.5949 20.156 11.7198 20.28C11.8438 20.4049 11.9913 20.5041 12.1537 20.5718C12.3162 20.6395 12.4905 20.6744 12.6665 20.6744C12.8425 20.6744 13.0168 20.6395 13.1793 20.5718C13.3418 20.5041 13.4892 20.4049 13.6132 20.28L18.9465 14.9466C19.0679 14.8198 19.163 14.6703 19.2265 14.5066C19.3599 14.182 19.3599 13.8179 19.2265 13.4933C19.163 13.3296 19.0679 13.1801 18.9465 13.0533L13.6132 7.71997C13.4889 7.59565 13.3413 7.49704 13.1788 7.42976C13.0164 7.36248 12.8423 7.32785 12.6665 7.32785C12.4907 7.32785 12.3166 7.36248 12.1542 7.42976C11.9917 7.49704 11.8442 7.59565 11.7198 7.71997C11.5955 7.84429 11.4969 7.99188 11.4296 8.1543C11.3623 8.31673 11.3277 8.49082 11.3277 8.66664C11.3277 8.84245 11.3623 9.01654 11.4296 9.17897C11.4969 9.3414 11.5955 9.48899 11.7198 9.6133L14.7865 12.6666H1.99984C1.64622 12.6666 1.30708 12.8071 1.05703 13.0572C0.80698 13.3072 0.666504 13.6463 0.666504 14C0.666504 14.3536 0.80698 14.6927 1.05703 14.9428C1.30708 15.1928 1.64622 15.3333 1.99984 15.3333H14.7865ZM13.9998 0.666637C11.508 0.655512 9.06283 1.34292 6.94179 2.65089C4.82076 3.95886 3.10871 5.83505 1.99984 8.06664C1.84071 8.3849 1.81452 8.75334 1.92705 9.0909C2.03957 9.42847 2.28158 9.70751 2.59984 9.86664C2.9181 10.0258 3.28654 10.052 3.6241 9.93943C3.96167 9.82691 4.24071 9.5849 4.39984 9.26664C5.24276 7.5644 6.52495 6.11813 8.1139 5.07729C9.70286 4.03645 11.5409 3.43879 13.4382 3.34609C15.3354 3.25339 17.223 3.66901 18.9059 4.54998C20.5887 5.43096 22.0058 6.74534 23.0107 8.3573C24.0155 9.96925 24.5717 11.8203 24.6217 13.7191C24.6717 15.618 24.2138 17.4958 23.2952 19.1584C22.3766 20.821 21.0307 22.2082 19.3966 23.1765C17.7624 24.1449 15.8993 24.6593 13.9998 24.6666C12.0117 24.6752 10.0614 24.1231 8.37276 23.0736C6.68414 22.0241 5.32564 20.5198 4.45317 18.7333C4.29404 18.415 4.015 18.173 3.67743 18.0605C3.33987 17.948 2.97143 17.9742 2.65317 18.1333C2.33491 18.2924 2.0929 18.5715 1.98038 18.909C1.86786 19.2466 1.89404 19.615 2.05317 19.9333C3.11027 22.0607 4.71653 23.8669 6.7058 25.1654C8.69507 26.4638 10.9951 27.2072 13.368 27.3186C15.7409 27.4301 18.1005 26.9056 20.2027 25.7993C22.3049 24.6931 24.0734 23.0453 25.3253 21.0264C26.5771 19.0075 27.2669 16.6908 27.3232 14.316C27.3795 11.9411 26.8003 9.59436 25.6455 7.51841C24.4907 5.44247 22.8023 3.71273 20.7549 2.50811C18.7074 1.3035 16.3754 0.667752 13.9998 0.666637Z" fill="#201B19" fill-opacity="0.7"/>
</svg>
