<svg width="26" height="30" viewBox="0 0 26 30" fill="none" xmlns="http://www.w3.org/2000/svg">
<path d="M9.73975 26.8024C10.4055 27.638 11.383 28.1788 12.4561 28.305C13.5292 28.4313 14.6094 28.1327 15.4575 27.4753C15.7184 27.2808 15.9531 27.0548 16.1561 26.8024M1.6676 17.3829V17.0909C1.71044 16.2271 1.9873 15.3901 2.46964 14.6662C3.27251 13.7967 3.82211 12.7312 4.06079 11.5814C4.06079 10.6927 4.06079 9.79142 4.13841 8.90278C4.53943 4.62464 8.76954 1.66675 12.9479 1.66675H13.0514C17.2298 1.66675 21.4599 4.62464 21.8738 8.90278C21.9515 9.79142 21.8738 10.6927 21.9385 11.5814C22.1804 12.7338 22.7295 13.8027 23.5297 14.6789C24.0156 15.3964 24.2929 16.2303 24.3317 17.0909V17.3702C24.3606 18.5308 23.9609 19.6625 23.2063 20.5566C22.2091 21.602 20.856 22.2524 19.403 22.3847C15.1425 22.8417 10.8439 22.8417 6.58333 22.3847C5.13203 22.2467 3.78085 21.5973 2.78011 20.5566C2.03717 19.6618 1.64282 18.5369 1.6676 17.3829Z" stroke="#201B19" stroke-opacity="0.7" stroke-width="1.5" stroke-linecap="round" stroke-linejoin="round"/>
</svg>
