<svg width="24" height="20" viewBox="0 0 24 20" fill="none" xmlns="http://www.w3.org/2000/svg">
<path d="M19.9493 0.793701H4.05078C2.99031 0.794971 1.97363 1.21681 1.22376 1.96668C0.473887 2.71655 0.0520515 3.73323 0.0507812 4.7937V15.2062C0.0520515 16.2667 0.473887 17.2833 1.22376 18.0332C1.97363 18.7831 2.99031 19.2049 4.05078 19.2062H19.9493C21.0098 19.2049 22.0265 18.7831 22.7764 18.0332C23.5262 17.2833 23.9481 16.2667 23.9493 15.2062V4.7937C23.9481 3.73323 23.5262 2.71655 22.7764 1.96668C22.0265 1.21681 21.0098 0.794971 19.9493 0.793701ZM4.05078 2.3937H19.9493C20.5857 2.39438 21.1957 2.64745 21.6456 3.09739C22.0956 3.54733 22.3487 4.15739 22.3493 4.7937V5.84298H1.65078V4.7937C1.65146 4.15739 1.90453 3.54733 2.35447 3.09739C2.80441 2.64745 3.41447 2.39438 4.05078 2.3937ZM19.9493 17.6062H4.05078C3.41447 17.6055 2.80441 17.3524 2.35447 16.9025C1.90453 16.4525 1.65146 15.8425 1.65078 15.2062V7.44298H22.3493V15.2062C22.3487 15.8425 22.0956 16.4525 21.6456 16.9025C21.1957 17.3524 20.5857 17.6055 19.9493 17.6062ZM20.1626 13.8647C20.1626 14.0769 20.0783 14.2804 19.9283 14.4304C19.7783 14.5805 19.5748 14.6647 19.3626 14.6647H17.4445C17.2324 14.6647 17.0289 14.5805 16.8789 14.4304C16.7288 14.2804 16.6445 14.0769 16.6445 13.8647C16.6445 13.6526 16.7288 13.4491 16.8789 13.2991C17.0289 13.149 17.2324 13.0647 17.4445 13.0647H19.3626C19.5748 13.0647 19.7783 13.149 19.9283 13.2991C20.0783 13.4491 20.1626 13.6526 20.1626 13.8647Z" fill="#201B19" fill-opacity="0.7"/>
</svg>
