<svg width="20" height="30" viewBox="0 0 20 30" fill="none" xmlns="http://www.w3.org/2000/svg">
<path d="M6.83024 8.52148H3.90797C3.74784 8.52148 3.59427 8.5851 3.48104 8.69833C3.36781 8.81155 3.3042 8.96513 3.3042 9.12526V12.0415C3.3042 12.2016 3.36781 12.3552 3.48104 12.4684C3.59427 12.5816 3.74784 12.6453 3.90797 12.6453H6.83024C6.99037 12.6453 7.14394 12.5816 7.25717 12.4684C7.3704 12.3552 7.43401 12.2016 7.43401 12.0415V9.12526C7.43401 8.96513 7.3704 8.81155 7.25717 8.69833C7.14394 8.5851 6.99037 8.52148 6.83024 8.52148ZM6.22646 11.4377H4.51175V9.72903H6.22646V11.4377ZM6.83024 14.9879H3.90797C3.74784 14.9879 3.59427 15.0515 3.48104 15.1647C3.36781 15.278 3.3042 15.4315 3.3042 15.5917V18.5079C3.3042 18.668 3.36781 18.8216 3.48104 18.9348C3.59427 19.0481 3.74784 19.1117 3.90797 19.1117H6.83024C6.99037 19.1117 7.14394 19.0481 7.25717 18.9348C7.3704 18.8216 7.43401 18.668 7.43401 18.5079V15.5917C7.43401 15.4315 7.3704 15.278 7.25717 15.1647C7.14394 15.0515 6.99037 14.9879 6.83024 14.9879ZM6.22646 17.9041H4.51175V16.1954H6.22646V17.9041ZM6.83024 21.4543H3.90797C3.74784 21.4543 3.59427 21.5179 3.48104 21.6312C3.36781 21.7444 3.3042 21.898 3.3042 22.0581V24.9622C3.3042 25.1224 3.36781 25.2759 3.48104 25.3892C3.59427 25.5024 3.74784 25.566 3.90797 25.566H6.83024C6.99037 25.566 7.14394 25.5024 7.25717 25.3892C7.3704 25.2759 7.43401 25.1224 7.43401 24.9622V22.0581C7.43401 21.898 7.3704 21.7444 7.25717 21.6312C7.14394 21.5179 6.99037 21.4543 6.83024 21.4543ZM6.22646 24.3705H4.51175V22.6619H6.22646V24.3705ZM9.14269 9.97658C8.98256 9.97658 8.82899 10.0402 8.71576 10.1534C8.60253 10.2666 8.53892 10.4202 8.53892 10.5804C8.53892 10.7405 8.60253 10.8941 8.71576 11.0073C8.82899 11.1205 8.98256 11.1841 9.14269 11.1841H16.0921C16.2523 11.1841 16.4058 11.1205 16.5191 11.0073C16.6323 10.8941 16.6959 10.7405 16.6959 10.5804C16.6959 10.4202 16.6323 10.2666 16.5191 10.1534C16.4058 10.0402 16.2523 9.97658 16.0921 9.97658H9.14269ZM16.0921 16.443H9.14269C8.98256 16.443 8.82899 16.5066 8.71576 16.6198C8.60253 16.7331 8.53892 16.8866 8.53892 17.0468C8.53892 17.2069 8.60253 17.3605 8.71576 17.4737C8.82899 17.5869 8.98256 17.6505 9.14269 17.6505H16.0921C16.2523 17.6505 16.4058 17.5869 16.5191 17.4737C16.6323 17.3605 16.6959 17.2069 16.6959 17.0468C16.6959 16.8866 16.6323 16.7331 16.5191 16.6198C16.4058 16.5066 16.2523 16.443 16.0921 16.443ZM16.0921 22.9154H9.14269C8.98256 22.9154 8.82899 22.9791 8.71576 23.0923C8.60253 23.2055 8.53892 23.3591 8.53892 23.5192C8.53892 23.6794 8.60253 23.8329 8.71576 23.9462C8.82899 24.0594 8.98256 24.123 9.14269 24.123H16.0921C16.2523 24.123 16.4058 24.0594 16.5191 23.9462C16.6323 23.8329 16.6959 23.6794 16.6959 23.5192C16.6959 23.3591 16.6323 23.2055 16.5191 23.0923C16.4058 22.9791 16.2523 22.9154 16.0921 22.9154Z" fill="#201B19" fill-opacity="0.7"/>
<path d="M11.9142 0.509521H8.08628C7.92615 0.509521 7.77257 0.573133 7.65934 0.686363C7.54611 0.799592 7.4825 0.953164 7.4825 1.1133V3.14197H6.3776C5.96329 3.14243 5.56266 3.29028 5.24739 3.55909C4.93212 3.8279 4.72279 4.20012 4.65684 4.60914H0.810805C0.650674 4.60914 0.497102 4.67276 0.383873 4.78599C0.270643 4.89921 0.207031 5.05279 0.207031 5.21292V28.8869C0.207031 29.047 0.270643 29.2006 0.383873 29.3138C0.497102 29.427 0.650674 29.4907 0.810805 29.4907H19.1897C19.3498 29.4907 19.5034 29.427 19.6166 29.3138C19.7298 29.2006 19.7934 29.047 19.7934 28.8869V5.21292C19.7934 5.05279 19.7298 4.89921 19.6166 4.78599C19.5034 4.67276 19.3498 4.60914 19.1897 4.60914H15.3497C15.2813 4.20014 15.0704 3.82851 14.7544 3.56C14.4384 3.29149 14.0376 3.14342 13.6229 3.14197H12.518V1.1133C12.518 0.953164 12.4544 0.799592 12.3411 0.686363C12.2279 0.573133 12.0743 0.509521 11.9142 0.509521V0.509521ZM18.5557 28.2831H1.41458V5.81669H4.62665V6.42046C4.62665 6.5806 4.69027 6.73417 4.8035 6.8474C4.91672 6.96063 5.0703 7.02424 5.23043 7.02424H14.7701C14.9302 7.02424 15.0838 6.96063 15.197 6.8474C15.3102 6.73417 15.3738 6.5806 15.3738 6.42046V5.81669H18.5859L18.5557 28.2831ZM13.6229 4.34952C13.6948 4.34952 13.7659 4.36377 13.8322 4.39145C13.8986 4.41914 13.9587 4.45971 14.0093 4.51081C14.0598 4.56191 14.0997 4.62253 14.1267 4.68915C14.1536 4.75578 14.1671 4.82709 14.1663 4.89896V5.84084H5.8342V4.89896C5.8334 4.82709 5.84687 4.75578 5.87382 4.68915C5.90077 4.62253 5.94067 4.56191 5.99121 4.51081C6.04175 4.45971 6.10192 4.41914 6.16824 4.39145C6.23457 4.36377 6.30573 4.34952 6.3776 4.34952H8.08628C8.24641 4.34952 8.39998 4.28591 8.51321 4.17268C8.62644 4.05945 8.69005 3.90588 8.69005 3.74575V1.71707H11.3104V3.74575C11.3104 3.90588 11.374 4.05945 11.4873 4.17268C11.6005 4.28591 11.7541 4.34952 11.9142 4.34952H13.6229Z" fill="#201B19" fill-opacity="0.7"/>
</svg>
