<svg width="18" height="24" viewBox="0 0 18 24" fill="none" xmlns="http://www.w3.org/2000/svg">
<path d="M16.703 19.1854L14.7327 15.9219C14.6713 15.8198 14.5578 15.6307 14.3309 15.5418C14.0284 15.4265 13.7504 15.5797 13.6313 15.6449L11.6563 16.7236C11.333 16.8985 10.9738 17.0611 10.7526 16.942C10.6268 16.8749 10.5304 16.7113 10.4169 16.5043L8.23588 12.5212L6.18248 8.48859C6.07944 8.28628 5.9953 8.10759 6.0104 7.96486C6.03641 7.71384 6.37344 7.50966 6.69913 7.34325L8.70388 6.31795C8.82538 6.25603 9.10897 6.11044 9.18369 5.79844C9.23901 5.56683 9.1468 5.364 9.09721 5.25436L7.51035 1.78612C7.33119 1.39519 7.08585 0.860109 6.5758 0.583078C5.96554 0.251719 5.24137 0.442688 4.80932 0.558516C3.86676 0.809531 3.03196 1.06622 2.36212 1.66608C1.22235 2.68852 0.988819 4.33777 0.859303 5.80364C0.737334 7.18252 0.916959 8.81522 1.39298 10.6564C1.79479 12.213 2.40927 13.7351 3.22091 15.1835C3.95929 16.6669 4.86876 18.0311 5.92715 19.2403C7.19872 20.6915 8.41166 21.7295 9.63552 22.415C10.6844 23.003 11.8738 23.6024 13.0849 23.6024C13.3562 23.6024 13.6285 23.5731 13.9008 23.506C14.7743 23.2905 15.456 22.7459 16.1943 22.1087C16.5328 21.8156 17.1 21.3259 17.17 20.6357C17.2277 20.0562 16.9242 19.5532 16.703 19.1854ZM15.6876 21.5225C15.0268 22.0935 14.4226 22.5795 13.7155 22.7534C12.5016 23.0531 11.1676 22.3856 10.0137 21.7399C8.88393 21.1065 7.70502 20.094 6.50957 18.7297C5.54854 17.6321 4.71473 16.3993 4.02693 15.0606C4.0184 15.0285 4.00565 14.9973 3.98816 14.9661C3.96027 14.9178 3.93285 14.8696 3.9059 14.8214C3.88035 14.7704 3.85485 14.7184 3.82977 14.6663C3.81416 14.6342 3.7948 14.6058 3.77258 14.5803C3.05502 13.2577 2.50715 11.8746 2.14269 10.4626C1.6889 8.70698 1.51635 7.16264 1.63077 5.8717C1.74707 4.55334 1.94938 3.07659 2.87919 2.24273C3.42093 1.75725 4.16399 1.53178 5.00826 1.30725C5.44269 1.19142 5.89363 1.09453 6.2061 1.26375C6.46799 1.40602 6.63294 1.7303 6.80596 2.10848L8.3999 5.60273C8.38668 5.60981 8.3706 5.61881 8.35119 5.62875L6.34644 6.65358C6.01129 6.82519 5.3136 7.18205 5.23987 7.88405C5.19969 8.26645 5.36891 8.59828 5.49229 8.84034L7.56416 12.9084L9.73766 16.8768C9.86858 17.115 10.0473 17.4421 10.3858 17.6246C11.0022 17.9573 11.6952 17.583 12.0261 17.4043L14.002 16.3256C14.071 16.2878 14.1013 16.2764 14.0682 16.3208L16.0394 19.5863C16.2539 19.9417 16.4289 20.2604 16.3986 20.5582C16.3635 20.9117 16.0279 21.2285 15.6876 21.5225Z" fill="black"/>
</svg>
