<svg width="18" height="21" viewBox="0 0 18 21" fill="none" xmlns="http://www.w3.org/2000/svg">
<path d="M6.42281 0.7125C8.02281 -0.2375 10.0228 -0.2375 11.6228 0.7125C13.2228 1.6625 14.1628 3.4125 14.0928 5.2625V5.4925C15.3528 5.4925 16.6828 6.3725 17.1428 8.5125L17.9128 14.5025C18.4838 18.4125 16.2128 20.0025 13.1628 20.0025H4.87281C1.81381 20.0025 -0.527189 18.9025 0.102811 14.5025L0.882811 8.5125C1.00281 7.6225 1.43281 6.7925 2.10281 6.1825C2.61381 5.7335 3.27281 5.4925 3.95281 5.4925V5.2625C3.87281 3.4125 4.82381 1.6625 6.42281 0.7125ZM11.8928 8.7125C11.4038 8.7125 11.0028 9.1025 11.0028 9.5925C11.0028 10.0725 11.4038 10.4725 11.8928 10.4725C12.1228 10.4725 12.3528 10.3825 12.5128 10.2125C12.6828 10.0525 12.7728 9.8225 12.7728 9.5925C12.7728 9.1025 12.3728 8.7125 11.8928 8.7125ZM6.09281 8.7125C5.60281 8.7125 5.20281 9.1025 5.20281 9.5925C5.20281 10.0725 5.60281 10.4725 6.09281 10.4725C6.58281 10.4725 6.97281 10.0725 6.97281 9.5925C6.97281 9.1025 6.58281 8.7125 6.09281 8.7125ZM9.00281 1.7425C7.05281 1.7425 5.47281 3.3225 5.47281 5.2625V5.4835H12.5428V5.2625C12.5428 3.3225 10.9628 1.7425 9.00281 1.7425Z" fill="#201B19" fill-opacity="0.7"/>
</svg>
