<svg width="30" height="30" viewBox="0 0 30 30" fill="none" xmlns="http://www.w3.org/2000/svg">
<path d="M26.0063 17.6251C25.7188 18.8126 25.2782 19.8813 24.6407 20.9188C24.5313 21.097 24.5688 21.3407 24.7125 21.4876C25.1188 21.8938 25.5282 22.3001 25.9313 22.7063C25.9532 22.7282 25.975 22.7532 25.9969 22.7751C26.0438 22.822 26.1157 22.9532 26.1375 23.0251C26.1469 23.0532 26.1532 23.0813 26.1594 23.1095C26.1938 23.2376 26.1594 23.0563 26.1657 23.1345C26.1719 23.2001 26.1719 23.2626 26.1688 23.3282C26.1625 23.422 26.1657 23.3501 26.1688 23.3313C26.1594 23.3751 26.15 23.4157 26.1375 23.4563C26.1282 23.4845 26.1188 23.5126 26.1094 23.5376C26.1438 23.4532 26.0875 23.5751 26.0813 23.5845C26.0657 23.6095 26.05 23.6345 26.0344 23.6595C25.9657 23.7657 26.0875 23.6157 25.9938 23.7063C25.9813 23.7188 25.9719 23.7313 25.9594 23.7407C25.9438 23.7563 25.9313 23.7688 25.9157 23.7845C25.8407 23.8595 25.7657 23.9345 25.6938 24.0063C25.1813 24.5188 24.6657 25.0345 24.1532 25.547C24.0157 25.6845 23.8813 25.8251 23.7407 25.9595C23.7282 25.972 23.7125 25.9845 23.7032 25.9938C23.6063 26.0907 23.7375 25.9751 23.675 26.0188C23.6438 26.0407 23.6125 26.0595 23.5813 26.0782C23.5563 26.0938 23.5282 26.1063 23.5032 26.1188C23.5719 26.0845 23.5094 26.1157 23.4938 26.122C23.4532 26.1345 23.4094 26.1438 23.3688 26.1563C23.275 26.1845 23.4282 26.1626 23.3219 26.1657C23.2657 26.1688 23.2063 26.1688 23.15 26.1657C23.025 26.1626 23.225 26.1938 23.1032 26.1563C23.075 26.147 23.0469 26.1438 23.0188 26.1345C22.9907 26.1251 22.9625 26.1157 22.9375 26.1063C23.0282 26.1407 22.9 26.0845 22.8907 26.0782C22.8657 26.0626 22.8407 26.047 22.8157 26.0313C22.7157 25.9657 22.8532 26.0782 22.7688 25.9907C22.3438 25.5595 21.9094 25.1345 21.4813 24.7063C21.3375 24.5626 21.0907 24.5251 20.9125 24.6345C19.8813 25.2782 18.8125 25.7188 17.625 26.0063C17.425 26.0532 17.2813 26.2563 17.2813 26.4595C17.2813 27.0376 17.2844 27.6188 17.2813 28.197C17.2813 28.2376 17.2813 28.2751 17.2782 28.3157C17.275 28.4345 17.3032 28.2782 17.275 28.3376C17.2625 28.3657 17.2594 28.4063 17.25 28.4376C17.2438 28.4626 17.2344 28.4907 17.225 28.5157C17.2563 28.422 17.2157 28.5313 17.2063 28.5532C17.1907 28.5845 17.1719 28.6095 17.1532 28.6407C17.1407 28.6626 17.0813 28.7282 17.1438 28.6595C17.1 28.7095 17.0532 28.7563 17.0032 28.8001C17.0719 28.7407 16.9625 28.8251 16.9344 28.8438C16.9 28.8657 16.8625 28.8845 16.8282 28.9001C16.9032 28.8657 16.8157 28.9001 16.7875 28.9095C16.7625 28.9157 16.7344 28.922 16.7063 28.9313C16.5875 28.9657 16.7594 28.9345 16.6844 28.9376C16.6469 28.9376 16.6125 28.9407 16.575 28.9438C16.5563 28.9438 16.5344 28.9438 16.5157 28.9438C16.4157 28.9438 16.3157 28.9438 16.2157 28.9438C15.4813 28.9438 14.75 28.9438 14.0157 28.9438C13.8219 28.9438 13.625 28.947 13.4313 28.9438C13.4032 28.9438 13.3719 28.9407 13.3438 28.9407C13.2282 28.9376 13.3813 28.9657 13.3219 28.9376C13.2938 28.9251 13.2532 28.922 13.2219 28.9126C13.1969 28.9063 13.1688 28.897 13.1438 28.8876C13.2407 28.922 13.1219 28.8751 13.1063 28.8688C13.0813 28.8563 13.0594 28.8438 13.0375 28.8282C13.025 28.8188 12.9282 28.7407 13.0032 28.8063C12.9532 28.7626 12.9063 28.7157 12.8625 28.6657C12.925 28.7345 12.825 28.6063 12.8094 28.5782C12.7938 28.5501 12.7782 28.5188 12.7625 28.4876C12.8 28.5688 12.7688 28.5032 12.7657 28.4845C12.7563 28.4501 12.7469 28.4188 12.7375 28.3845C12.7313 28.3657 12.7282 28.3438 12.725 28.322C12.7313 28.3782 12.7313 28.3782 12.725 28.322C12.7094 27.7032 12.7219 27.0845 12.7219 26.4626C12.7219 26.2626 12.5782 26.0595 12.3782 26.0095C11.1907 25.722 10.1219 25.2813 9.08442 24.6438C8.9063 24.5345 8.66255 24.572 8.51567 24.7157C8.10942 25.122 7.70317 25.5313 7.29692 25.9345C7.27505 25.9563 7.25005 25.9782 7.22817 26.0001C7.1813 26.047 7.05005 26.1188 6.97817 26.1407C6.95005 26.1501 6.92192 26.1563 6.8938 26.1626C6.76567 26.197 6.94692 26.1626 6.8688 26.1688C6.80317 26.1751 6.74067 26.1751 6.67505 26.172C6.5813 26.1657 6.65317 26.1688 6.67192 26.172C6.62817 26.1626 6.58755 26.1532 6.54692 26.1407C6.5188 26.1313 6.49067 26.122 6.46567 26.1126C6.55005 26.147 6.42817 26.0907 6.4188 26.0845C6.3938 26.0688 6.3688 26.0532 6.3438 26.0376C6.23755 25.9688 6.38755 26.0907 6.29692 25.997C6.28442 25.9845 6.27192 25.9751 6.26255 25.9626C6.24692 25.947 6.23442 25.9345 6.2188 25.9188C6.1438 25.8438 6.0688 25.7688 5.99692 25.697C5.48442 25.1845 4.9688 24.6688 4.4563 24.1563C4.3188 24.0188 4.17817 23.8845 4.0438 23.7438C4.0313 23.7313 4.0188 23.7157 4.00942 23.7063C3.91255 23.6095 4.02817 23.7407 3.98442 23.6782C3.96255 23.647 3.9438 23.6157 3.92505 23.5845C3.90942 23.5595 3.89692 23.5313 3.88442 23.5063C3.9188 23.5751 3.88755 23.5126 3.8813 23.497C3.8688 23.4563 3.85942 23.4126 3.84692 23.372C3.8188 23.2782 3.84067 23.4313 3.83755 23.3251C3.83442 23.2688 3.83442 23.2095 3.83755 23.1532C3.84067 23.0282 3.80942 23.2282 3.84692 23.1063C3.8563 23.0782 3.85942 23.0501 3.8688 23.022C3.87817 22.9938 3.88755 22.9657 3.89692 22.9407C3.86255 23.0313 3.9188 22.9032 3.92505 22.8938C3.94067 22.8688 3.9563 22.8438 3.97192 22.8188C4.03755 22.7188 3.92505 22.8563 4.01255 22.772C4.4438 22.347 4.8688 21.9126 5.29692 21.4845C5.44067 21.3407 5.47817 21.0938 5.3688 20.9157C4.72192 19.8813 4.2813 18.8126 3.9938 17.6251C3.94692 17.4251 3.7438 17.2813 3.54067 17.2813C2.96255 17.2813 2.3813 17.2845 1.80317 17.2813C1.76255 17.2813 1.72505 17.2813 1.68442 17.2782C1.56567 17.2751 1.72192 17.3032 1.66255 17.2751C1.63442 17.2626 1.5938 17.2595 1.56255 17.2501C1.53755 17.2438 1.50942 17.2345 1.48442 17.2251C1.57817 17.2563 1.4688 17.2157 1.44692 17.2063C1.41567 17.1907 1.39067 17.172 1.35942 17.1532C1.33755 17.1407 1.27192 17.0813 1.34067 17.1438C1.29067 17.1001 1.2438 17.0532 1.20005 17.0032C1.25942 17.072 1.17505 16.9626 1.1563 16.9345C1.13442 16.9001 1.11567 16.8626 1.10005 16.8282C1.13442 16.9032 1.10005 16.8157 1.09067 16.7876C1.08442 16.7626 1.07817 16.7345 1.0688 16.7063C1.03442 16.5876 1.06567 16.7595 1.06255 16.6845C1.06255 16.647 1.05942 16.6126 1.0563 16.5751C1.0563 16.5563 1.0563 16.5345 1.0563 16.5157C1.0563 16.4157 1.0563 16.3157 1.0563 16.2157C1.0563 15.4813 1.0563 14.7501 1.0563 14.0157C1.0563 13.822 1.05317 13.6251 1.0563 13.4313C1.0563 13.4032 1.05942 13.372 1.05942 13.3438C1.06255 13.2282 1.03442 13.3813 1.06255 13.322C1.07505 13.2938 1.07817 13.2532 1.08755 13.222C1.0938 13.197 1.10317 13.1688 1.11255 13.1438C1.07817 13.2407 1.12505 13.122 1.1313 13.1063C1.1438 13.0813 1.1563 13.0595 1.17192 13.0376C1.1813 13.0251 1.25942 12.9282 1.1938 13.0032C1.23755 12.9532 1.28442 12.9063 1.33442 12.8626C1.26567 12.9251 1.3938 12.8251 1.42192 12.8095C1.45005 12.7938 1.4813 12.7782 1.51255 12.7626C1.4313 12.8001 1.49692 12.7688 1.51567 12.7657C1.55005 12.7563 1.5813 12.747 1.61567 12.7376C1.63442 12.7313 1.6563 12.7282 1.67817 12.7251C1.62192 12.7313 1.62192 12.7313 1.67817 12.7251C2.29692 12.7095 2.91567 12.722 3.53755 12.722C3.73755 12.722 3.94067 12.5782 3.99067 12.3782C4.27817 11.1907 4.7188 10.122 5.3563 9.08447C5.46567 8.90635 5.42817 8.6626 5.28442 8.51572C4.87817 8.10947 4.4688 7.70322 4.06567 7.29697C4.0438 7.27509 4.02192 7.25009 4.00005 7.22822C3.95317 7.18134 3.8813 7.0501 3.85942 6.97822C3.85005 6.9501 3.8438 6.92197 3.83755 6.89385C3.80317 6.76572 3.83755 6.94697 3.8313 6.86884C3.82505 6.80322 3.82505 6.74072 3.82817 6.6751C3.83442 6.58135 3.8313 6.65322 3.82817 6.67197C3.83755 6.62822 3.84692 6.58759 3.85942 6.54697C3.8688 6.51885 3.87817 6.49072 3.88755 6.46572C3.85317 6.55009 3.90942 6.42822 3.91567 6.41884C3.9313 6.39384 3.94692 6.36884 3.96255 6.34384C4.0313 6.2376 3.90942 6.38759 4.00317 6.29697C4.01567 6.28447 4.02505 6.27197 4.03755 6.26259C4.05317 6.24697 4.06567 6.23447 4.0813 6.21884C4.1563 6.14385 4.2313 6.06884 4.30317 5.99697C4.81567 5.48447 5.3313 4.96884 5.8438 4.45635C5.9813 4.31885 6.11567 4.17822 6.2563 4.04384C6.2688 4.03134 6.28442 4.01885 6.2938 4.00947C6.39067 3.9126 6.25942 4.02822 6.32192 3.98447C6.35317 3.9626 6.38442 3.94385 6.41567 3.9251C6.44067 3.90947 6.4688 3.89697 6.4938 3.88447C6.42505 3.91885 6.48755 3.88759 6.50317 3.88135C6.5438 3.86884 6.58755 3.85947 6.62817 3.84697C6.72192 3.81885 6.5688 3.84072 6.67505 3.8376C6.7313 3.83447 6.79067 3.83447 6.84692 3.8376C6.97192 3.84072 6.77192 3.80947 6.8938 3.84697C6.92192 3.85635 6.95005 3.85947 6.97817 3.86885C7.0063 3.87822 7.03442 3.88759 7.05942 3.89697C6.9688 3.8626 7.09692 3.91885 7.1063 3.9251C7.1313 3.94072 7.1563 3.95635 7.1813 3.97197C7.2813 4.0376 7.1438 3.92509 7.22817 4.01259C7.65317 4.44384 8.08755 4.86884 8.51567 5.29697C8.65942 5.44072 8.9063 5.47822 9.08442 5.36884C10.1188 4.72197 11.1875 4.28135 12.375 3.99385C12.575 3.94697 12.7188 3.74385 12.7188 3.54072C12.7188 2.9626 12.7157 2.38135 12.7188 1.80322C12.7188 1.7626 12.7188 1.7251 12.7219 1.68447C12.725 1.56572 12.6969 1.72197 12.725 1.6626C12.7375 1.63447 12.7407 1.59385 12.75 1.5626C12.7563 1.5376 12.7657 1.50947 12.775 1.48447C12.7438 1.57822 12.7844 1.46885 12.7938 1.44697C12.8094 1.41572 12.8282 1.39072 12.8469 1.35947C12.8594 1.3376 12.9188 1.27197 12.8563 1.34072C12.9 1.29072 12.9469 1.24385 12.9969 1.2001C12.9282 1.25947 13.0375 1.1751 13.0657 1.15635C13.1 1.13447 13.1375 1.11572 13.1719 1.10009C13.0969 1.13447 13.1844 1.1001 13.2125 1.09072C13.2375 1.08447 13.2657 1.07822 13.2938 1.06884C13.4125 1.03447 13.2407 1.06572 13.3157 1.0626C13.3532 1.0626 13.3875 1.05947 13.425 1.05635C13.4438 1.05635 13.4657 1.05635 13.4844 1.05635C13.5844 1.05635 13.6844 1.05635 13.7844 1.05635C14.5188 1.05635 15.25 1.05635 15.9844 1.05635C16.1782 1.05635 16.375 1.05322 16.5688 1.05635C16.5969 1.05635 16.6282 1.05947 16.6563 1.05947C16.7719 1.0626 16.6188 1.03447 16.6782 1.0626C16.7063 1.0751 16.7469 1.07822 16.7782 1.0876C16.8032 1.09385 16.8313 1.10322 16.8563 1.1126C16.7594 1.07822 16.8782 1.1251 16.8938 1.13135C16.9188 1.14385 16.9407 1.15635 16.9625 1.17197C16.975 1.18135 17.0719 1.25947 16.9969 1.19385C17.0469 1.2376 17.0938 1.28447 17.1375 1.33447C17.075 1.26572 17.175 1.39385 17.1907 1.42197C17.2063 1.4501 17.2219 1.48135 17.2375 1.5126C17.2 1.43135 17.2313 1.49697 17.2344 1.51572C17.2438 1.5501 17.2532 1.58135 17.2625 1.61572C17.2688 1.63447 17.2719 1.65635 17.275 1.67822C17.2688 1.62197 17.2688 1.62197 17.275 1.67822C17.2907 2.29697 17.2782 2.91572 17.2782 3.5376C17.2782 3.7376 17.4219 3.94072 17.6219 3.99072C18.8094 4.27822 19.8782 4.71884 20.9157 5.35634C21.0938 5.46572 21.3375 5.42822 21.4844 5.28447C21.8907 4.87822 22.2969 4.46885 22.7032 4.06572C22.725 4.04385 22.75 4.02197 22.7719 4.0001C22.8188 3.95322 22.95 3.88135 23.0219 3.85947C23.05 3.8501 23.0782 3.84385 23.1063 3.8376C23.2344 3.80322 23.0532 3.8376 23.1313 3.83135C23.1969 3.8251 23.2594 3.8251 23.325 3.82822C23.4188 3.83447 23.3469 3.83135 23.3282 3.82822C23.3719 3.8376 23.4125 3.84697 23.4532 3.85947C23.4813 3.86885 23.5094 3.87822 23.5344 3.88759C23.45 3.85322 23.5719 3.90947 23.5813 3.91572C23.6063 3.93135 23.6313 3.94697 23.6563 3.9626C23.7625 4.03135 23.6125 3.90947 23.7032 4.00322C23.7157 4.01572 23.7282 4.02509 23.7375 4.0376C23.7532 4.05322 23.7657 4.06572 23.7813 4.08135C23.8563 4.15635 23.9313 4.23134 24.0032 4.30322C24.5157 4.81572 25.0313 5.33135 25.5438 5.84384C25.6813 5.98134 25.8219 6.11572 25.9563 6.25634C25.9688 6.26884 25.9813 6.28447 25.9907 6.29384C26.0875 6.39072 25.9719 6.25947 26.0157 6.32197C26.0375 6.35322 26.0563 6.38447 26.075 6.41572C26.0907 6.44072 26.1032 6.46884 26.1157 6.49384C26.0813 6.4251 26.1125 6.4876 26.1188 6.50322C26.1313 6.54385 26.1407 6.58759 26.1532 6.62822C26.1813 6.72197 26.1594 6.56885 26.1625 6.6751C26.1657 6.73135 26.1657 6.79072 26.1625 6.84697C26.1594 6.97197 26.1907 6.77197 26.1532 6.89385C26.1438 6.92197 26.1407 6.9501 26.1313 6.97822C26.1219 7.00634 26.1125 7.03447 26.1032 7.05947C26.1375 6.96884 26.0813 7.09697 26.075 7.10634C26.0594 7.13134 26.0438 7.15634 26.0282 7.18134C25.9625 7.28134 26.075 7.14384 25.9875 7.22822C25.5563 7.65322 25.1313 8.0876 24.7032 8.51572C24.5594 8.65947 24.5219 8.90635 24.6313 9.08447C25.2782 10.1188 25.7188 11.1876 26.0063 12.3751C26.0532 12.5751 26.2563 12.7188 26.4594 12.7188C27.0375 12.7188 27.6188 12.7157 28.1969 12.7188C28.2375 12.7188 28.275 12.7188 28.3157 12.722C28.4344 12.7251 28.2782 12.697 28.3375 12.7251C28.3657 12.7376 28.4063 12.7407 28.4375 12.7501C28.4625 12.7563 28.4907 12.7657 28.5157 12.7751C28.4219 12.7438 28.5313 12.7845 28.5532 12.7938C28.5844 12.8095 28.6094 12.8282 28.6407 12.847C28.6625 12.8595 28.7282 12.9188 28.6594 12.8563C28.7094 12.9001 28.7563 12.947 28.8 12.997C28.7407 12.9282 28.825 13.0376 28.8438 13.0657C28.8657 13.1001 28.8844 13.1376 28.9 13.172C28.8657 13.097 28.9 13.1845 28.9094 13.2126C28.9157 13.2376 28.9219 13.2657 28.9313 13.2938C28.9657 13.4126 28.9344 13.2407 28.9375 13.3157C28.9375 13.3532 28.9407 13.3876 28.9438 13.4251C28.9438 13.4438 28.9438 13.4657 28.9438 13.4845C28.9438 13.5845 28.9438 13.6845 28.9438 13.7845C28.9438 14.5188 28.9438 15.2501 28.9438 15.9845C28.9438 16.1782 28.9469 16.3751 28.9438 16.5688C28.9438 16.597 28.9407 16.6282 28.9407 16.6563C28.9375 16.772 28.9657 16.6188 28.9375 16.6782C28.925 16.7063 28.9219 16.747 28.9125 16.7782C28.9063 16.8032 28.8969 16.8313 28.8875 16.8563C28.9219 16.7595 28.875 16.8782 28.8688 16.8938C28.8563 16.9188 28.8438 16.9407 28.8282 16.9626C28.8188 16.9751 28.7407 17.072 28.8063 16.997C28.7625 17.047 28.7157 17.0938 28.6657 17.1376C28.7344 17.0751 28.6063 17.1751 28.5782 17.1907C28.55 17.2063 28.5188 17.222 28.4875 17.2376C28.5688 17.2001 28.5032 17.2313 28.4844 17.2345C28.45 17.2438 28.4188 17.2532 28.3844 17.2626C28.3657 17.2688 28.3438 17.272 28.3219 17.2751C28.3782 17.2688 28.3782 17.2688 28.3219 17.2751C27.7032 17.2907 27.0844 17.2782 26.4625 17.2782C26.2188 17.2782 25.9813 17.4938 25.9938 17.747C26.0063 18.0001 26.2 18.2157 26.4625 18.2157C27.05 18.2157 27.6407 18.2251 28.2282 18.2157C28.9219 18.2063 29.5219 17.7876 29.775 17.1438C29.8844 16.8626 29.8813 16.5688 29.8813 16.272C29.8813 15.497 29.8813 14.7251 29.8813 13.9501C29.8813 13.747 29.8938 13.5407 29.8782 13.3376C29.8282 12.6282 29.3375 11.9938 28.6344 11.8282C28.2625 11.7407 27.8532 11.7782 27.475 11.7782C27.1375 11.7782 26.8032 11.7782 26.4657 11.7782C26.6157 11.8938 26.7657 12.0063 26.9188 12.122C26.6188 10.8845 26.125 9.69072 25.4594 8.60322C25.4344 8.79385 25.4094 8.98135 25.3875 9.17197C25.8032 8.75635 26.225 8.34697 26.6344 7.9251C27.1219 7.42197 27.2532 6.69384 26.9657 6.05634C26.8407 5.77822 26.625 5.57822 26.4157 5.36572C25.875 4.82509 25.3375 4.28759 24.7969 3.74697C24.6594 3.60947 24.525 3.46572 24.3813 3.33447C23.8407 2.83447 22.9813 2.72822 22.3594 3.1501C22.0469 3.35947 21.7907 3.66572 21.5282 3.92822C21.2969 4.15947 21.0657 4.39072 20.8344 4.62197C21.025 4.59697 21.2125 4.57197 21.4032 4.5501C20.3157 3.88447 19.1219 3.39072 17.8844 3.09072C18 3.24072 18.1125 3.39072 18.2282 3.54384C18.2282 2.95635 18.2375 2.36572 18.2282 1.77822C18.2188 1.08447 17.8 0.48447 17.1563 0.231345C16.875 0.12197 16.5813 0.125095 16.2844 0.125095C15.5094 0.125095 14.7375 0.125095 13.9625 0.125095C13.7594 0.125095 13.5532 0.112595 13.35 0.12822C12.6407 0.17822 12.0063 0.668845 11.8407 1.37197C11.7532 1.74385 11.7907 2.15322 11.7907 2.53135C11.7907 2.86885 11.7907 3.20322 11.7907 3.54072C11.9063 3.39072 12.0188 3.24072 12.1344 3.0876C10.8969 3.3876 9.70317 3.88134 8.61567 4.54697C8.8063 4.57197 8.9938 4.59697 9.18442 4.61884C8.7688 4.20322 8.35942 3.78134 7.93755 3.37197C7.43442 2.88447 6.7063 2.75322 6.0688 3.04072C5.79067 3.16572 5.59067 3.38135 5.37817 3.59072C4.83755 4.13134 4.30005 4.66884 3.75942 5.20947C3.62192 5.34697 3.47817 5.48134 3.34692 5.62509C2.84692 6.16572 2.74067 7.0251 3.16255 7.64697C3.37192 7.95947 3.67817 8.21572 3.94067 8.47822C4.17192 8.70947 4.40317 8.94072 4.63442 9.17197C4.60942 8.98135 4.58442 8.79385 4.56255 8.60322C3.89692 9.69072 3.40317 10.8845 3.10317 12.122C3.25317 12.0063 3.40317 11.8938 3.5563 11.7782C2.9688 11.7782 2.37817 11.7688 1.79067 11.7782C1.09692 11.7876 0.496921 12.2063 0.243796 12.8501C0.134421 13.1313 0.137546 13.4251 0.137546 13.722C0.137546 14.497 0.137546 15.2688 0.137546 16.0438C0.137546 16.247 0.125046 16.4532 0.140671 16.6563C0.190671 17.3657 0.681296 18.0001 1.38442 18.1657C1.7563 18.2532 2.16567 18.2157 2.5438 18.2157C2.8813 18.2157 3.21567 18.2157 3.55317 18.2157C3.40317 18.1001 3.25317 17.9876 3.10005 17.872C3.40005 19.1095 3.8938 20.3032 4.55942 21.3907C4.58442 21.2001 4.60942 21.0126 4.6313 20.822C4.21567 21.2376 3.7938 21.647 3.38442 22.0688C2.89692 22.572 2.76567 23.3001 3.05317 23.9376C3.17817 24.2157 3.3938 24.4157 3.60317 24.6282C4.1438 25.1688 4.6813 25.7063 5.22192 26.247C5.35942 26.3845 5.4938 26.5282 5.63755 26.6595C6.17817 27.1595 7.03755 27.2657 7.65942 26.8438C7.97192 26.6345 8.22817 26.3282 8.49067 26.0657C8.72192 25.8345 8.95317 25.6032 9.18442 25.372C8.9938 25.397 8.8063 25.422 8.61567 25.4438C9.70317 26.1095 10.8969 26.6032 12.1344 26.9032C12.0188 26.7532 11.9063 26.6032 11.7907 26.4501C11.7907 27.0376 11.7813 27.6282 11.7907 28.2157C11.8 28.9095 12.2188 29.5095 12.8625 29.7626C13.1438 29.872 13.4375 29.8688 13.7344 29.8688C14.5094 29.8688 15.2813 29.8688 16.0563 29.8688C16.2594 29.8688 16.4657 29.8813 16.6688 29.8657C17.3782 29.8157 18.0125 29.3251 18.1782 28.622C18.2657 28.2501 18.2282 27.8407 18.2282 27.4626C18.2282 27.1251 18.2282 26.7907 18.2282 26.4532C18.1125 26.6032 18 26.7532 17.8844 26.9063C19.1219 26.6063 20.3157 26.1126 21.4032 25.447C21.2125 25.422 21.025 25.397 20.8344 25.3751C21.25 25.7907 21.6594 26.2126 22.0813 26.622C22.5844 27.1095 23.3125 27.2407 23.95 26.9532C24.2282 26.8282 24.4282 26.6126 24.6407 26.4032C25.1813 25.8626 25.7188 25.3251 26.2594 24.7845C26.3969 24.647 26.5407 24.5126 26.6719 24.3688C27.1719 23.8282 27.2782 22.9688 26.8563 22.347C26.6469 22.0345 26.3407 21.7782 26.0782 21.5157C25.8469 21.2845 25.6157 21.0532 25.3844 20.822C25.4094 21.0126 25.4344 21.2001 25.4563 21.3907C26.1219 20.3032 26.6157 19.1095 26.9157 17.872C26.9719 17.6345 26.8407 17.3532 26.5875 17.2938C26.3407 17.2438 26.0688 17.372 26.0063 17.6251Z" fill="#201B19" fill-opacity="0.7"/>
<path d="M20.0625 15C20.0625 15.1469 20.0562 15.2906 20.0468 15.4375C20.0406 15.5031 20.0343 15.5656 20.0281 15.6312C20.025 15.6562 20.0125 15.75 20.025 15.6562C20.0187 15.7 20.0125 15.7406 20.0062 15.7844C19.9593 16.0625 19.8937 16.3375 19.8062 16.6031C19.7687 16.7219 19.7218 16.8375 19.6781 16.9562C19.6281 17.0812 19.7031 16.9031 19.6687 16.9781C19.6562 17.0094 19.6406 17.0406 19.625 17.0719C19.5937 17.1406 19.5593 17.2094 19.525 17.275C19.4031 17.5125 19.2656 17.7406 19.1093 17.9594C19.0687 18.0156 19.0281 18.0687 18.9875 18.125C19.0437 18.05 18.9375 18.1844 18.9218 18.2062C18.8312 18.3156 18.7343 18.4219 18.6343 18.525C18.55 18.6125 18.4593 18.6969 18.3687 18.7812C18.3187 18.8281 18.2656 18.8719 18.2156 18.9156C18.1937 18.9344 18.175 18.95 18.1531 18.9687C18.1312 18.9875 18.1093 19.0031 18.0906 19.0187C18.125 18.9906 18.1312 18.9875 18.1031 19.0094C17.8906 19.1719 17.6656 19.3156 17.4343 19.4469C17.3125 19.5125 17.1906 19.575 17.0656 19.6312C17.0406 19.6437 17.0156 19.6531 16.9906 19.6656C16.8687 19.7219 17.0437 19.6437 16.9687 19.675C16.8968 19.7031 16.8281 19.7312 16.7562 19.7562C16.4937 19.85 16.2218 19.9281 15.9468 19.9812C15.8906 19.9937 15.8343 20.0031 15.7781 20.0125C15.7375 20.0187 15.6937 20.025 15.65 20.0312C15.6687 20.0281 15.7406 20.0219 15.6468 20.0312C15.5031 20.0469 15.3593 20.0594 15.2156 20.0656C14.925 20.0781 14.6343 20.0625 14.3437 20.0312C14.2062 20.0156 14.4031 20.0406 14.3187 20.0281C14.2843 20.0219 14.2468 20.0187 14.2125 20.0125C14.15 20.0031 14.0875 19.9906 14.025 19.9781C13.8812 19.95 13.7375 19.9156 13.5937 19.875C13.4718 19.8406 13.3531 19.8031 13.2343 19.7594C13.1687 19.7344 13.1062 19.7094 13.0406 19.6844C12.9562 19.65 13.0218 19.675 13.0375 19.6844C12.9937 19.6656 12.95 19.6469 12.9062 19.625C12.6625 19.5125 12.4281 19.3812 12.2062 19.2344C12.0906 19.1594 11.9812 19.0812 11.8718 18.9969C11.9437 19.0531 11.8312 18.9625 11.8062 18.9437C11.7437 18.8906 11.6812 18.8375 11.6218 18.7844C11.425 18.6062 11.2406 18.4156 11.0718 18.2094C11.0562 18.1875 10.9468 18.0531 11.0062 18.1281C10.9656 18.075 10.925 18.0187 10.8843 17.9625C10.8062 17.85 10.7312 17.7375 10.6593 17.6187C10.5875 17.5 10.5218 17.3812 10.4593 17.2594C10.4312 17.2031 10.4031 17.1469 10.3781 17.0906C10.3625 17.0594 10.35 17.0281 10.3343 16.9969C10.2781 16.8719 10.3656 17.0844 10.3156 16.9562C10.2125 16.6969 10.125 16.4312 10.0625 16.1594C10.0343 16.0344 10.0093 15.9094 9.98745 15.7844C9.9812 15.75 9.97495 15.7125 9.97183 15.6781C9.95933 15.5969 9.98433 15.7906 9.9687 15.6531C9.95933 15.575 9.95308 15.4969 9.94683 15.4156C9.92495 15.1312 9.92495 14.8469 9.94995 14.5656C9.9562 14.4937 9.96245 14.4219 9.97183 14.35C9.9812 14.2562 9.97495 14.3281 9.97183 14.3469C9.97808 14.3125 9.9812 14.275 9.98745 14.2406C10.0125 14.0937 10.0406 13.9469 10.075 13.8031C10.1406 13.5375 10.225 13.2812 10.3281 13.0281C10.3593 12.9531 10.2812 13.1281 10.3375 13.0062C10.35 12.9812 10.3593 12.9562 10.3718 12.9312C10.4 12.8687 10.4312 12.8062 10.4625 12.7437C10.525 12.6219 10.5906 12.5 10.6625 12.3844C10.7343 12.2687 10.8093 12.1531 10.8875 12.0406C10.9218 11.9906 10.9593 11.9406 10.9968 11.8906C11.0437 11.8281 10.9281 11.975 11.0125 11.8719C11.0375 11.8406 11.0625 11.8094 11.0906 11.7781C11.2656 11.5687 11.4562 11.375 11.6593 11.1937C11.7062 11.1531 11.7531 11.1125 11.8 11.075C11.8218 11.0594 11.9531 10.95 11.8812 11.0094C11.9906 10.925 12.1 10.8469 12.2156 10.7719C12.4437 10.6219 12.6875 10.4875 12.9343 10.375C12.9656 10.3594 12.9968 10.3469 13.0281 10.3312C13.1031 10.3 12.925 10.3719 13.05 10.3219C13.1093 10.3 13.1656 10.275 13.225 10.2531C13.3625 10.2031 13.5031 10.1594 13.6437 10.1187C13.7656 10.0844 13.8875 10.0562 14.0125 10.0312C14.0812 10.0156 14.1531 10.0031 14.2218 9.99373C14.25 9.9906 14.2781 9.98435 14.3062 9.98123C14.3625 9.97185 14.3625 9.97185 14.3093 9.98123C14.3312 9.9781 14.3531 9.97498 14.3718 9.97498C14.6531 9.94373 14.9375 9.93123 15.2218 9.94373C15.3656 9.94998 15.5093 9.96248 15.6531 9.9781C15.6718 9.98123 15.7468 9.9906 15.6562 9.9781C15.6906 9.98435 15.7281 9.98748 15.7625 9.99373C15.8406 10.0062 15.9156 10.0187 15.9937 10.0344C16.2687 10.0906 16.5375 10.1687 16.8 10.2656C16.8531 10.2844 16.9031 10.3062 16.9562 10.325C17.0843 10.375 16.8718 10.2844 16.9968 10.3437C17.0218 10.3562 17.0468 10.3656 17.0718 10.3781C17.1968 10.4344 17.3187 10.4969 17.4406 10.5625C17.6812 10.6937 17.9093 10.8437 18.125 11.0125C18.0531 10.9562 18.125 11.0125 18.1437 11.0281C18.1687 11.05 18.1968 11.0719 18.2218 11.0937C18.2687 11.1344 18.3156 11.1719 18.3593 11.2156C18.4656 11.3125 18.5687 11.4094 18.6687 11.5125C18.7531 11.6 18.8343 11.6937 18.9125 11.7875C18.9343 11.8125 18.9562 11.8406 18.9781 11.8656C18.9937 11.8844 19.05 11.9562 18.9937 11.8844C19.0406 11.9437 19.0843 12.0031 19.1281 12.0656C19.2812 12.2844 19.4187 12.5125 19.5406 12.7531C19.5718 12.8156 19.6 12.8781 19.6312 12.9406C19.6437 12.9656 19.6531 12.9906 19.6656 13.0156C19.7218 13.1406 19.6343 12.9281 19.6843 13.0562C19.7343 13.1844 19.7843 13.3156 19.825 13.4469C19.9093 13.7094 19.9718 13.975 20.0156 14.2469C20.0218 14.2812 20.0281 14.3187 20.0312 14.3531C20.0187 14.2625 20.0281 14.3375 20.0312 14.3562C20.0375 14.4281 20.0468 14.5 20.0531 14.5719C20.0562 14.7094 20.0625 14.8531 20.0625 15C20.0625 15.2437 20.2781 15.4812 20.5312 15.4687C20.7843 15.4562 21 15.2625 21 15C20.9937 13.7687 20.6187 12.5375 19.8968 11.5375C19.1812 10.5406 18.1968 9.78748 17.0437 9.35935C14.7187 8.49685 11.975 9.23748 10.3968 11.15C9.5937 12.1219 9.11245 13.3031 9.01245 14.5625C8.9187 15.7844 9.2187 17.0375 9.84995 18.0875C10.4687 19.1125 11.4 19.9594 12.4937 20.4531C13.6625 20.9781 14.9562 21.1281 16.2156 20.875C18.6031 20.3969 20.5468 18.3781 20.9156 15.9656C20.9656 15.6437 20.9937 15.3219 20.9968 15C20.9968 14.7562 20.7812 14.5187 20.5281 14.5312C20.275 14.5437 20.0625 14.7375 20.0625 15Z" fill="#201B19" fill-opacity="0.7"/>
</svg>
